<svg xmlns="http://www.w3.org/2000/svg" xmlns:xlink="http://www.w3.org/1999/xlink" width="40" zoomAndPan="magnify" viewBox="0 0 30 30.000001" height="40" preserveAspectRatio="xMidYMid meet" version="1.2"><defs><clipPath id="6e3090b127"><path d="M 4.53125 4.046875 L 25.578125 4.046875 L 25.578125 25 L 4.53125 25 Z M 4.53125 4.046875 "/></clipPath></defs><g id="4c17f32e12"><g clip-rule="nonzero" clip-path="url(#6e3090b127)"><path style=" stroke:none;fill-rule:nonzero;fill:#0070ed;fill-opacity:1;" d="M 24.429688 12.078125 L 23.03125 11.730469 L 22.648438 10.800781 L 23.390625 9.566406 C 23.550781 9.296875 23.613281 9.007812 23.574219 8.695312 C 23.535156 8.382812 23.40625 8.117188 23.183594 7.898438 L 21.613281 6.328125 C 21.394531 6.105469 21.128906 5.976562 20.816406 5.9375 C 20.503906 5.898438 20.214844 5.960938 19.949219 6.121094 L 18.710938 6.863281 L 17.78125 6.480469 L 17.433594 5.082031 C 17.355469 4.777344 17.195312 4.527344 16.949219 4.335938 C 16.699219 4.140625 16.421875 4.046875 16.105469 4.046875 L 13.886719 4.046875 C 13.574219 4.046875 13.292969 4.140625 13.046875 4.335938 C 12.800781 4.527344 12.640625 4.777344 12.5625 5.082031 L 12.214844 6.480469 L 11.285156 6.863281 L 10.050781 6.121094 C 9.78125 5.960938 9.492188 5.898438 9.179688 5.9375 C 8.867188 5.976562 8.601562 6.105469 8.382812 6.328125 L 6.8125 7.898438 C 6.589844 8.117188 6.460938 8.382812 6.421875 8.695312 C 6.382812 9.007812 6.445312 9.296875 6.605469 9.566406 L 7.347656 10.800781 L 6.964844 11.730469 L 5.566406 12.078125 C 5.261719 12.15625 5.011719 12.316406 4.820312 12.5625 C 4.625 12.808594 4.53125 13.089844 4.53125 13.402344 L 4.53125 15.625 C 4.53125 15.9375 4.625 16.21875 4.820312 16.464844 C 5.011719 16.710938 5.261719 16.871094 5.566406 16.949219 L 6.964844 17.296875 L 7.347656 18.226562 L 6.605469 19.464844 C 6.445312 19.730469 6.382812 20.019531 6.421875 20.332031 C 6.460938 20.644531 6.589844 20.910156 6.8125 21.128906 L 8.378906 22.699219 C 8.601562 22.921875 8.867188 23.050781 9.179688 23.089844 C 9.488281 23.128906 9.78125 23.066406 10.046875 22.90625 L 11.285156 22.164062 L 12.214844 22.546875 L 12.5625 23.949219 C 12.640625 24.25 12.800781 24.5 13.046875 24.691406 C 13.292969 24.886719 13.574219 24.980469 13.886719 24.980469 L 16.105469 24.980469 C 16.421875 24.980469 16.699219 24.886719 16.949219 24.691406 C 17.195312 24.5 17.355469 24.25 17.433594 23.945312 L 17.78125 22.546875 L 18.710938 22.164062 L 19.945312 22.90625 C 20.214844 23.066406 20.503906 23.128906 20.816406 23.089844 C 21.128906 23.054688 21.394531 22.921875 21.613281 22.699219 L 23.183594 21.132812 C 23.40625 20.910156 23.535156 20.644531 23.574219 20.332031 C 23.613281 20.019531 23.550781 19.730469 23.390625 19.460938 L 22.648438 18.226562 L 23.03125 17.296875 L 24.429688 16.949219 C 24.734375 16.871094 24.984375 16.710938 25.175781 16.464844 C 25.371094 16.21875 25.464844 15.9375 25.464844 15.625 L 25.464844 13.402344 C 25.464844 13.089844 25.371094 12.808594 25.175781 12.5625 C 24.984375 12.316406 24.734375 12.15625 24.429688 12.078125 Z M 24.554688 15.625 C 24.554688 15.859375 24.441406 16.007812 24.210938 16.066406 L 22.589844 16.472656 C 22.441406 16.507812 22.335938 16.597656 22.277344 16.738281 L 21.71875 18.089844 C 21.660156 18.230469 21.671875 18.367188 21.75 18.496094 L 22.609375 19.929688 C 22.730469 20.132812 22.707031 20.320312 22.539062 20.488281 L 20.972656 22.054688 C 20.804688 22.226562 20.617188 22.246094 20.414062 22.125 L 18.980469 21.265625 C 18.851562 21.1875 18.714844 21.175781 18.574219 21.234375 L 17.222656 21.792969 C 17.082031 21.851562 16.992188 21.957031 16.953125 22.105469 L 16.550781 23.726562 C 16.492188 23.957031 16.34375 24.070312 16.105469 24.070312 L 13.886719 24.070312 C 13.652344 24.070312 13.503906 23.957031 13.445312 23.726562 L 13.042969 22.105469 C 13.003906 21.957031 12.914062 21.851562 12.773438 21.792969 L 11.421875 21.234375 C 11.367188 21.210938 11.308594 21.199219 11.25 21.199219 C 11.164062 21.199219 11.085938 21.222656 11.015625 21.265625 L 9.578125 22.125 C 9.378906 22.246094 9.191406 22.226562 9.023438 22.054688 L 7.453125 20.488281 C 7.289062 20.320312 7.265625 20.132812 7.386719 19.929688 L 8.246094 18.496094 C 8.324219 18.367188 8.335938 18.230469 8.277344 18.089844 L 7.71875 16.738281 C 7.660156 16.597656 7.554688 16.507812 7.40625 16.472656 L 5.785156 16.066406 C 5.554688 16.007812 5.441406 15.859375 5.441406 15.625 L 5.441406 13.402344 C 5.441406 13.167969 5.554688 13.019531 5.785156 12.960938 L 7.40625 12.558594 C 7.554688 12.519531 7.660156 12.429688 7.714844 12.289062 L 8.277344 10.9375 C 8.335938 10.796875 8.324219 10.660156 8.246094 10.53125 L 7.386719 9.097656 C 7.265625 8.894531 7.285156 8.707031 7.453125 8.539062 L 9.023438 6.972656 C 9.191406 6.804688 9.378906 6.78125 9.582031 6.902344 L 11.015625 7.761719 C 11.144531 7.839844 11.28125 7.851562 11.421875 7.792969 L 12.773438 7.234375 C 12.914062 7.175781 13.003906 7.070312 13.042969 6.921875 L 13.445312 5.300781 C 13.503906 5.070312 13.652344 4.957031 13.886719 4.957031 L 16.105469 4.957031 C 16.34375 4.957031 16.492188 5.070312 16.550781 5.300781 L 16.953125 6.921875 C 16.992188 7.070312 17.082031 7.175781 17.222656 7.234375 L 18.574219 7.792969 C 18.714844 7.851562 18.851562 7.839844 18.980469 7.761719 L 20.414062 6.902344 C 20.617188 6.78125 20.804688 6.804688 20.96875 6.972656 L 22.539062 8.539062 C 22.707031 8.707031 22.730469 8.894531 22.609375 9.097656 L 21.75 10.53125 C 21.671875 10.660156 21.660156 10.796875 21.71875 10.9375 L 22.277344 12.289062 C 22.335938 12.429688 22.441406 12.519531 22.589844 12.558594 L 24.210938 12.960938 C 24.441406 13.019531 24.554688 13.167969 24.554688 13.402344 Z M 24.554688 15.625 "/></g><path style=" stroke:none;fill-rule:nonzero;fill:#0070ed;fill-opacity:1;" d="M 14.996094 9.507812 C 14.667969 9.507812 14.34375 9.539062 14.019531 9.605469 C 13.699219 9.667969 13.386719 9.761719 13.082031 9.890625 C 12.777344 10.015625 12.488281 10.167969 12.214844 10.351562 C 11.941406 10.535156 11.691406 10.742188 11.457031 10.972656 C 11.226562 11.207031 11.019531 11.460938 10.835938 11.734375 C 10.652344 12.007812 10.5 12.292969 10.371094 12.597656 C 10.246094 12.902344 10.152344 13.214844 10.085938 13.539062 C 10.023438 13.859375 9.992188 14.183594 9.992188 14.515625 C 9.992188 14.84375 10.023438 15.167969 10.085938 15.492188 C 10.152344 15.8125 10.246094 16.125 10.371094 16.429688 C 10.5 16.734375 10.652344 17.023438 10.835938 17.296875 C 11.019531 17.570312 11.226562 17.820312 11.457031 18.054688 C 11.691406 18.285156 11.941406 18.492188 12.214844 18.675781 C 12.488281 18.859375 12.777344 19.011719 13.082031 19.140625 C 13.386719 19.265625 13.699219 19.359375 14.019531 19.425781 C 14.34375 19.488281 14.667969 19.519531 14.996094 19.519531 C 15.328125 19.519531 15.652344 19.488281 15.972656 19.425781 C 16.296875 19.359375 16.609375 19.265625 16.914062 19.140625 C 17.21875 19.011719 17.503906 18.859375 17.777344 18.675781 C 18.050781 18.492188 18.304688 18.285156 18.539062 18.054688 C 18.769531 17.820312 18.976562 17.570312 19.160156 17.296875 C 19.34375 17.023438 19.496094 16.734375 19.621094 16.429688 C 19.75 16.125 19.84375 15.8125 19.90625 15.492188 C 19.972656 15.167969 20.003906 14.84375 20.003906 14.515625 C 20.003906 14.183594 19.972656 13.859375 19.90625 13.539062 C 19.84375 13.214844 19.746094 12.902344 19.621094 12.597656 C 19.496094 12.296875 19.339844 12.007812 19.160156 11.734375 C 18.976562 11.460938 18.769531 11.207031 18.535156 10.976562 C 18.304688 10.742188 18.050781 10.535156 17.777344 10.351562 C 17.503906 10.171875 17.214844 10.015625 16.914062 9.890625 C 16.609375 9.765625 16.296875 9.667969 15.972656 9.605469 C 15.652344 9.539062 15.328125 9.507812 14.996094 9.507812 Z M 14.996094 18.609375 C 14.730469 18.609375 14.460938 18.582031 14.199219 18.53125 C 13.933594 18.480469 13.679688 18.402344 13.429688 18.296875 C 13.183594 18.195312 12.945312 18.070312 12.722656 17.917969 C 12.5 17.769531 12.292969 17.601562 12.101562 17.410156 C 11.910156 17.21875 11.742188 17.011719 11.59375 16.789062 C 11.441406 16.566406 11.316406 16.328125 11.214844 16.082031 C 11.109375 15.832031 11.03125 15.578125 10.980469 15.3125 C 10.929688 15.050781 10.902344 14.78125 10.902344 14.515625 C 10.902344 14.246094 10.929688 13.980469 10.980469 13.714844 C 11.03125 13.449219 11.109375 13.195312 11.214844 12.945312 C 11.316406 12.699219 11.441406 12.460938 11.59375 12.238281 C 11.742188 12.015625 11.910156 11.808594 12.101562 11.617188 C 12.292969 11.425781 12.5 11.257812 12.722656 11.109375 C 12.945312 10.957031 13.183594 10.832031 13.429688 10.730469 C 13.679688 10.625 13.933594 10.550781 14.199219 10.496094 C 14.460938 10.445312 14.730469 10.417969 14.996094 10.417969 C 15.265625 10.417969 15.53125 10.445312 15.796875 10.496094 C 16.0625 10.550781 16.316406 10.625 16.566406 10.730469 C 16.8125 10.832031 17.050781 10.957031 17.273438 11.109375 C 17.496094 11.257812 17.703125 11.425781 17.894531 11.617188 C 18.085938 11.808594 18.253906 12.015625 18.402344 12.238281 C 18.554688 12.460938 18.679688 12.699219 18.78125 12.945312 C 18.886719 13.195312 18.960938 13.449219 19.015625 13.714844 C 19.066406 13.980469 19.09375 14.246094 19.09375 14.515625 C 19.09375 14.78125 19.066406 15.050781 19.015625 15.3125 C 18.960938 15.578125 18.882812 15.832031 18.78125 16.082031 C 18.675781 16.328125 18.550781 16.566406 18.402344 16.789062 C 18.253906 17.011719 18.082031 17.21875 17.894531 17.410156 C 17.703125 17.597656 17.496094 17.769531 17.273438 17.917969 C 17.046875 18.066406 16.8125 18.195312 16.566406 18.296875 C 16.316406 18.398438 16.058594 18.476562 15.796875 18.53125 C 15.53125 18.582031 15.265625 18.609375 14.996094 18.609375 Z M 14.996094 18.609375 "/></g></svg>