<svg xmlns="http://www.w3.org/2000/svg" xmlns:xlink="http://www.w3.org/1999/xlink" width="40" zoomAndPan="magnify" viewBox="0 0 30 30.000001" height="40" preserveAspectRatio="xMidYMid meet" version="1.2"><defs><clipPath id="55f70ce3ea"><path d="M 12 3.050781 L 27 3.050781 L 27 19 L 12 19 Z M 12 3.050781 "/></clipPath><clipPath id="41ece902c5"><path d="M 16.847656 13.476562 L 19 13.476562 L 19 15.652344 L 16.847656 15.652344 Z M 16.847656 13.476562 "/></clipPath></defs><g id="de3ad0dcf7"><g clip-rule="nonzero" clip-path="url(#55f70ce3ea)"><path style=" stroke:none;fill-rule:nonzero;fill:#0070ed;fill-opacity:1;" d="M 24.816406 5.292969 C 22.558594 3.035156 18.878906 3.035156 16.621094 5.292969 L 13.84375 8.070312 C 13.429688 8.484375 13.429688 9.15625 13.84375 9.570312 C 14.261719 9.984375 14.933594 9.984375 15.347656 9.570312 L 18.121094 6.792969 C 21.660156 3.472656 26.648438 8.457031 23.316406 11.988281 C 23.316406 11.988281 20.070312 15.234375 20.070312 15.234375 C 18.429688 16.921875 15.496094 16.554688 14.324219 14.515625 C 14.023438 14.011719 13.371094 13.847656 12.867188 14.144531 C 11.757812 14.84375 12.703125 16.085938 13.375 16.734375 C 14.507812 17.863281 15.992188 18.429688 17.476562 18.429688 C 18.960938 18.429688 20.441406 17.863281 21.574219 16.734375 L 24.816406 13.492188 C 27.066406 11.332031 27.066406 7.453125 24.816406 5.292969 Z M 24.816406 5.292969 "/></g><path style=" stroke:none;fill-rule:nonzero;fill:#0070ed;fill-opacity:1;" d="M 15.746094 19.558594 L 12.96875 22.335938 C 9.457031 25.667969 4.441406 20.65625 7.773438 17.140625 C 7.773438 17.140625 11.019531 13.898438 11.019531 13.898438 C 12.660156 12.214844 15.585938 12.574219 16.761719 14.605469 C 17.0625 15.113281 17.714844 15.277344 18.21875 14.980469 C 19.324219 14.285156 18.382812 13.039062 17.714844 12.394531 C 15.453125 10.136719 11.777344 10.136719 9.519531 12.394531 C 9.519531 12.394531 6.273438 15.640625 6.273438 15.640625 C 2.621094 19.242188 5.300781 25.589844 10.371094 25.53125 C 11.855469 25.53125 13.339844 24.96875 14.46875 23.835938 L 17.246094 21.0625 C 18.214844 20.058594 16.75 18.589844 15.746094 19.558594 Z M 15.746094 19.558594 "/><g clip-rule="nonzero" clip-path="url(#41ece902c5)"><path style=" stroke:none;fill-rule:nonzero;fill:#0070ed;fill-opacity:1;" d="M 18.925781 14.511719 C 18.925781 14.652344 18.898438 14.785156 18.84375 14.910156 C 18.792969 15.039062 18.71875 15.148438 18.621094 15.246094 C 18.523438 15.34375 18.410156 15.417969 18.285156 15.472656 C 18.15625 15.523438 18.023438 15.550781 17.886719 15.550781 C 17.75 15.550781 17.617188 15.523438 17.488281 15.472656 C 17.363281 15.417969 17.25 15.34375 17.152344 15.246094 C 17.054688 15.148438 16.980469 15.039062 16.929688 14.910156 C 16.875 14.785156 16.847656 14.652344 16.847656 14.511719 C 16.847656 14.375 16.875 14.242188 16.929688 14.117188 C 16.980469 13.988281 17.054688 13.875 17.152344 13.78125 C 17.25 13.683594 17.363281 13.605469 17.488281 13.554688 C 17.617188 13.5 17.75 13.476562 17.886719 13.476562 C 18.023438 13.476562 18.15625 13.5 18.285156 13.554688 C 18.410156 13.605469 18.523438 13.683594 18.621094 13.78125 C 18.71875 13.875 18.792969 13.988281 18.84375 14.117188 C 18.898438 14.242188 18.925781 14.375 18.925781 14.511719 Z M 18.925781 14.511719 "/></g></g></svg>