<svg xmlns="http://www.w3.org/2000/svg" xmlns:xlink="http://www.w3.org/1999/xlink" width="40" zoomAndPan="magnify" viewBox="0 0 30 30.000001" height="40" preserveAspectRatio="xMidYMid meet" version="1.2"><defs><clipPath id="2c4b346cd4"><path d="M 18 4.144531 L 25 4.144531 L 25 15 L 18 15 Z M 18 4.144531 "/></clipPath><clipPath id="9dcac61435"><path d="M 21 4.144531 L 26 4.144531 L 26 8 L 21 8 Z M 21 4.144531 "/></clipPath><clipPath id="a772ac48f1"><path d="M 2.867188 23 L 26.820312 23 L 26.820312 25 L 2.867188 25 Z M 2.867188 23 "/></clipPath></defs><g id="2645eae2c5"><path style=" stroke:none;fill-rule:nonzero;fill:#0070ed;fill-opacity:1;" d="M 4.699219 23.816406 L 7.257812 23.816406 L 7.257812 19.386719 L 4.699219 19.386719 Z M 7.628906 24.5625 L 4.324219 24.5625 C 4.121094 24.5625 3.953125 24.394531 3.953125 24.1875 L 3.953125 19.015625 C 3.953125 18.808594 4.121094 18.644531 4.324219 18.644531 L 7.628906 18.644531 C 7.835938 18.644531 8 18.808594 8 19.015625 L 8 24.1875 C 8 24.394531 7.835938 24.5625 7.628906 24.5625 "/><path style=" stroke:none;fill-rule:nonzero;fill:#0070ed;fill-opacity:1;" d="M 10.609375 23.816406 L 13.167969 23.816406 L 13.167969 16.433594 L 10.609375 16.433594 Z M 13.542969 24.5625 L 10.238281 24.5625 C 10.03125 24.5625 9.867188 24.394531 9.867188 24.1875 L 9.867188 16.058594 C 9.867188 15.855469 10.03125 15.6875 10.238281 15.6875 L 13.542969 15.6875 C 13.746094 15.6875 13.914062 15.855469 13.914062 16.058594 L 13.914062 24.1875 C 13.914062 24.394531 13.746094 24.5625 13.542969 24.5625 "/><path style=" stroke:none;fill-rule:nonzero;fill:#0070ed;fill-opacity:1;" d="M 16.523438 23.816406 L 19.082031 23.816406 L 19.082031 19.386719 L 16.523438 19.386719 Z M 19.453125 24.5625 L 16.148438 24.5625 C 15.945312 24.5625 15.777344 24.394531 15.777344 24.1875 L 15.777344 19.015625 C 15.777344 18.808594 15.945312 18.644531 16.148438 18.644531 L 19.453125 18.644531 C 19.660156 18.644531 19.824219 18.808594 19.824219 19.015625 L 19.824219 24.1875 C 19.824219 24.394531 19.660156 24.5625 19.453125 24.5625 "/><path style=" stroke:none;fill-rule:nonzero;fill:#0070ed;fill-opacity:1;" d="M 22.433594 23.816406 L 24.992188 23.816406 L 24.992188 13.476562 L 22.433594 13.476562 Z M 25.367188 24.5625 L 22.0625 24.5625 C 21.855469 24.5625 21.691406 24.394531 21.691406 24.1875 L 21.691406 13.105469 C 21.691406 12.898438 21.855469 12.730469 22.0625 12.730469 L 25.367188 12.730469 C 25.570312 12.730469 25.738281 12.898438 25.738281 13.105469 L 25.738281 24.1875 C 25.738281 24.394531 25.570312 24.5625 25.367188 24.5625 "/><g clip-rule="nonzero" clip-path="url(#2c4b346cd4)"><path style=" stroke:none;fill-rule:nonzero;fill:#0070ed;fill-opacity:1;" d="M 18.484375 14.855469 C 18.417969 14.855469 18.351562 14.839844 18.292969 14.804688 C 18.117188 14.695312 18.058594 14.46875 18.167969 14.292969 L 24.15625 4.375 C 24.261719 4.199219 24.492188 4.144531 24.667969 4.25 C 24.84375 4.355469 24.902344 4.585938 24.792969 4.761719 L 18.804688 14.675781 C 18.734375 14.792969 18.613281 14.855469 18.484375 14.855469 "/></g><path style=" stroke:none;fill-rule:nonzero;fill:#0070ed;fill-opacity:1;" d="M 16.859375 15.351562 C 16.785156 15.351562 16.714844 15.332031 16.648438 15.289062 L 12.703125 12.621094 C 12.53125 12.507812 12.484375 12.277344 12.601562 12.105469 C 12.714844 11.933594 12.949219 11.890625 13.117188 12.003906 L 17.066406 14.671875 C 17.238281 14.785156 17.28125 15.015625 17.167969 15.1875 C 17.09375 15.292969 16.976562 15.351562 16.859375 15.351562 "/><path style=" stroke:none;fill-rule:nonzero;fill:#0070ed;fill-opacity:1;" d="M 7.058594 15.757812 C 6.949219 15.757812 6.84375 15.710938 6.769531 15.621094 C 6.636719 15.460938 6.660156 15.226562 6.820312 15.097656 L 10.6875 11.941406 C 10.847656 11.808594 11.082031 11.835938 11.214844 11.992188 C 11.34375 12.152344 11.320312 12.386719 11.160156 12.519531 L 7.292969 15.675781 C 7.222656 15.730469 7.140625 15.757812 7.058594 15.757812 "/><g clip-rule="nonzero" clip-path="url(#9dcac61435)"><path style=" stroke:none;fill-rule:nonzero;fill:#0070ed;fill-opacity:1;" d="M 25.125 7.320312 C 24.960938 7.320312 24.808594 7.210938 24.765625 7.046875 L 24.21875 5.027344 L 22.199219 5.570312 C 22.003906 5.621094 21.796875 5.503906 21.746094 5.304688 C 21.691406 5.109375 21.808594 4.902344 22.007812 4.851562 L 24.386719 4.210938 C 24.582031 4.15625 24.789062 4.273438 24.84375 4.472656 L 25.484375 6.851562 C 25.535156 7.050781 25.417969 7.253906 25.222656 7.308594 C 25.1875 7.316406 25.15625 7.320312 25.125 7.320312 "/></g><g clip-rule="nonzero" clip-path="url(#a772ac48f1)"><path style=" stroke:none;fill-rule:nonzero;fill:#0070ed;fill-opacity:1;" d="M 26.449219 24.621094 L 3.242188 24.621094 C 3.035156 24.621094 2.871094 24.457031 2.871094 24.25 C 2.871094 24.042969 3.035156 23.878906 3.242188 23.878906 L 26.449219 23.878906 C 26.65625 23.878906 26.820312 24.042969 26.820312 24.25 C 26.820312 24.457031 26.65625 24.621094 26.449219 24.621094 "/></g><path style=" stroke:none;fill-rule:nonzero;fill:#0070ed;fill-opacity:1;" d="M 5.976562 15.285156 C 5.550781 15.285156 5.203125 15.632812 5.203125 16.058594 C 5.203125 16.488281 5.550781 16.835938 5.976562 16.835938 C 6.40625 16.835938 6.753906 16.488281 6.753906 16.058594 C 6.753906 15.632812 6.40625 15.285156 5.976562 15.285156 Z M 5.976562 17.582031 C 5.140625 17.582031 4.457031 16.898438 4.457031 16.058594 C 4.457031 15.222656 5.140625 14.539062 5.976562 14.539062 C 6.816406 14.539062 7.496094 15.222656 7.496094 16.058594 C 7.496094 16.898438 6.816406 17.582031 5.976562 17.582031 "/><path style=" stroke:none;fill-rule:nonzero;fill:#0070ed;fill-opacity:1;" d="M 11.890625 10.832031 C 11.460938 10.832031 11.113281 11.179688 11.113281 11.609375 C 11.113281 12.035156 11.460938 12.382812 11.890625 12.382812 C 12.316406 12.382812 12.664062 12.035156 12.664062 11.609375 C 12.664062 11.179688 12.316406 10.832031 11.890625 10.832031 Z M 11.890625 13.128906 C 11.050781 13.128906 10.371094 12.445312 10.371094 11.609375 C 10.371094 10.769531 11.050781 10.089844 11.890625 10.089844 C 12.726562 10.089844 13.410156 10.769531 13.410156 11.609375 C 13.410156 12.445312 12.726562 13.128906 11.890625 13.128906 "/><path style=" stroke:none;fill-rule:nonzero;fill:#0070ed;fill-opacity:1;" d="M 17.800781 14.855469 C 17.375 14.855469 17.027344 15.203125 17.027344 15.632812 C 17.027344 16.058594 17.375 16.40625 17.800781 16.40625 C 18.230469 16.40625 18.578125 16.058594 18.578125 15.632812 C 18.578125 15.203125 18.230469 14.855469 17.800781 14.855469 Z M 17.800781 17.152344 C 16.964844 17.152344 16.28125 16.472656 16.28125 15.632812 C 16.28125 14.792969 16.964844 14.113281 17.800781 14.113281 C 18.640625 14.113281 19.320312 14.792969 19.320312 15.632812 C 19.320312 16.472656 18.640625 17.152344 17.800781 17.152344 "/></g></svg>