<svg xmlns="http://www.w3.org/2000/svg" xmlns:xlink="http://www.w3.org/1999/xlink" width="600" zoomAndPan="magnify" viewBox="0 0 450 449.999984" height="600" preserveAspectRatio="xMidYMid meet" version="1.2"><defs><clipPath id="9b4e1856b0"><path d="M 38.542969 11.414062 L 403 11.414062 L 403 438.570312 L 38.542969 438.570312 Z M 38.542969 11.414062 "/></clipPath><clipPath id="c65d9d91c1"><path d="M 106.339844 49.882812 L 411.4375 49.882812 L 411.4375 306.191406 L 106.339844 306.191406 Z M 106.339844 49.882812 "/></clipPath><clipPath id="84be728826"><path d="M 175.191406 262.570312 L 181.941406 262.570312 L 181.941406 269.320312 L 175.191406 269.320312 Z M 175.191406 262.570312 "/></clipPath></defs><g id="292e9c319a"><g clip-rule="nonzero" clip-path="url(#9b4e1856b0)"><path style=" stroke:none;fill-rule:nonzero;fill:#3e8cff;fill-opacity:1;" d="M 396.625 157.054688 C 393.101562 157.054688 390.25 159.910156 390.25 163.429688 L 390.25 257.214844 C 390.25 281.308594 380.472656 305.667969 361.1875 329.617188 C 347.53125 346.582031 329.152344 363.308594 306.570312 379.335938 C 275.273438 401.542969 243.691406 416.898438 231.566406 422.46875 C 231.296875 422.589844 231.039062 422.734375 230.789062 422.894531 C 227.796875 424.808594 224.335938 425.820312 220.769531 425.820312 C 217.210938 425.820312 213.746094 424.804688 210.753906 422.890625 C 210.503906 422.734375 210.246094 422.589844 209.980469 422.46875 C 197.851562 416.898438 166.265625 401.539062 134.976562 379.335938 C 112.390625 363.308594 94.015625 346.582031 80.355469 329.617188 C 61.074219 305.667969 51.296875 281.308594 51.296875 257.214844 L 51.296875 89.53125 C 51.296875 82.910156 54.859375 76.734375 60.59375 73.421875 C 66.386719 70.074219 95.660156 58.40625 124.71875 48.382812 C 166.371094 34.019531 198.195312 25.890625 219.308594 24.222656 C 220.28125 24.148438 221.265625 24.148438 222.234375 24.222656 C 249.5 26.371094 280.703125 36.097656 304.839844 44.328125 C 308.171875 45.464844 311.792969 43.683594 312.929688 40.351562 C 314.066406 37.015625 312.289062 33.394531 308.957031 32.257812 C 284.113281 23.785156 251.917969 13.773438 223.234375 11.511719 C 221.601562 11.382812 219.941406 11.382812 218.308594 11.511719 C 196.117188 13.261719 163.230469 21.609375 120.5625 36.332031 C 95.609375 44.933594 62.222656 57.753906 54.210938 62.382812 C 44.546875 67.96875 38.542969 78.371094 38.542969 89.53125 L 38.542969 257.214844 C 38.542969 284.289062 49.269531 311.339844 70.421875 337.613281 C 84.816406 355.492188 104.054688 373.027344 127.597656 389.734375 C 159.445312 412.332031 191.550781 428.015625 204.273438 433.878906 C 209.230469 436.949219 214.921875 438.570312 220.773438 438.570312 C 226.617188 438.570312 232.3125 436.953125 237.269531 433.878906 C 249.992188 428.019531 282.097656 412.335938 313.945312 389.734375 C 337.492188 373.027344 356.726562 355.492188 371.121094 337.613281 C 392.273438 311.339844 403 284.289062 403 257.214844 L 403 163.429688 C 403 159.910156 400.144531 157.054688 396.625 157.054688 "/></g><path style=" stroke:none;fill-rule:nonzero;fill:#3e8cff;fill-opacity:1;" d="M 91.925781 251.59375 C 88.40625 251.59375 85.550781 254.449219 85.550781 257.972656 C 85.550781 272.601562 91.789062 288.289062 104.097656 304.601562 C 115.945312 320.300781 133.101562 336.175781 155.089844 351.777344 C 178.730469 368.554688 202.34375 381.132812 217.988281 388.726562 C 218.867188 389.152344 219.820312 389.367188 220.773438 389.367188 C 221.726562 389.367188 222.679688 389.152344 223.554688 388.726562 C 239.203125 381.132812 262.816406 368.554688 286.457031 351.777344 C 308.445312 336.175781 325.601562 320.300781 337.449219 304.601562 C 349.753906 288.289062 355.992188 272.601562 355.992188 257.972656 L 355.992188 214.167969 C 355.992188 210.648438 353.140625 207.792969 349.617188 207.792969 C 346.097656 207.792969 343.242188 210.648438 343.242188 214.167969 L 343.242188 257.972656 C 343.242188 269.765625 337.867188 282.871094 327.269531 296.917969 C 316.210938 311.578125 299.996094 326.535156 279.078125 341.378906 C 257.507812 356.6875 235.917969 368.40625 220.773438 375.890625 C 205.625 368.40625 184.039062 356.6875 162.46875 341.378906 C 141.546875 326.535156 125.332031 311.574219 114.277344 296.917969 C 103.675781 282.871094 98.300781 269.765625 98.300781 257.972656 C 98.300781 254.449219 95.449219 251.59375 91.925781 251.59375 "/><path style=" stroke:none;fill-rule:nonzero;fill:#3e8cff;fill-opacity:1;" d="M 220.785156 70.574219 C 236.675781 72.203125 246.417969 74.1875 271.226562 82.226562 C 274.578125 83.3125 278.171875 81.476562 279.257812 78.125 C 280.34375 74.777344 278.507812 71.179688 275.160156 70.09375 C 249.105469 61.652344 238.429688 59.539062 221.417969 57.820312 C 220.988281 57.777344 220.558594 57.777344 220.132812 57.820312 C 202.4375 59.617188 172.976562 67.355469 137.171875 79.609375 C 115.292969 87.097656 97.945312 93.871094 89.550781 97.242188 C 87.132812 98.214844 85.550781 100.554688 85.550781 103.160156 L 85.550781 145.132812 C 85.550781 148.652344 88.40625 151.507812 91.925781 151.507812 C 95.449219 151.507812 98.300781 148.652344 98.300781 145.132812 L 98.300781 107.480469 C 107.480469 103.859375 122.730469 98.03125 141.300781 91.675781 C 175.773438 79.875 203.953125 72.398438 220.785156 70.574219 "/><g clip-rule="nonzero" clip-path="url(#c65d9d91c1)"><path style=" stroke:none;fill-rule:nonzero;fill:#3e8cff;fill-opacity:1;" d="M 215.246094 291.96875 L 121.058594 201.074219 L 148.746094 172.382812 L 208.078125 229.640625 C 209.273438 230.796875 210.890625 231.40625 212.550781 231.332031 C 214.210938 231.257812 215.765625 230.507812 216.855469 229.25 L 366.71875 64.503906 L 396.84375 90.625 Z M 411.421875 89.585938 C 411.308594 87.988281 410.5625 86.496094 409.347656 85.441406 L 370.078125 51.390625 C 368.867188 50.339844 367.285156 49.8125 365.683594 49.925781 C 364.082031 50.039062 362.589844 50.785156 361.539062 51.996094 L 211.890625 216.492188 L 152.796875 159.46875 C 150.390625 157.144531 146.558594 157.214844 144.238281 159.621094 L 108.140625 197.023438 C 107.027344 198.179688 106.417969 199.726562 106.445312 201.335938 C 106.472656 202.941406 107.140625 204.46875 108.292969 205.582031 L 210.707031 304.414062 C 211.847656 305.515625 213.363281 306.113281 214.910156 306.113281 C 215.195312 306.113281 215.484375 306.09375 215.773438 306.050781 C 217.695312 306.210938 219.582031 305.449219 220.851562 303.984375 L 409.957031 93.984375 C 411.007812 92.769531 411.535156 91.191406 411.421875 89.585938 "/></g><g clip-rule="nonzero" clip-path="url(#84be728826)"><path style=" stroke:none;fill-rule:nonzero;fill:#3e8cff;fill-opacity:1;" d="M 181.941406 265.945312 C 181.941406 266.394531 181.855469 266.824219 181.683594 267.238281 C 181.511719 267.652344 181.269531 268.015625 180.953125 268.332031 C 180.636719 268.648438 180.269531 268.894531 179.855469 269.066406 C 179.441406 269.238281 179.011719 269.320312 178.566406 269.320312 C 178.117188 269.320312 177.6875 269.238281 177.273438 269.066406 C 176.859375 268.894531 176.496094 268.648438 176.179688 268.332031 C 175.863281 268.015625 175.617188 267.652344 175.445312 267.238281 C 175.277344 266.824219 175.191406 266.394531 175.191406 265.945312 C 175.191406 265.5 175.277344 265.070312 175.445312 264.65625 C 175.617188 264.242188 175.863281 263.878906 176.179688 263.5625 C 176.496094 263.246094 176.859375 263 177.273438 262.828125 C 177.6875 262.65625 178.117188 262.570312 178.566406 262.570312 C 179.011719 262.570312 179.441406 262.65625 179.855469 262.828125 C 180.269531 263 180.636719 263.246094 180.953125 263.5625 C 181.269531 263.878906 181.511719 264.242188 181.683594 264.65625 C 181.855469 265.070312 181.941406 265.5 181.941406 265.945312 Z M 181.941406 265.945312 "/></g></g></svg>